<svg version="1.1" xmlns="http://www.w3.org/2000/svg" xmlns:xlink="http://www.w3.org/1999/xlink" viewBox="0 0 172 172"><g fill="none" fill-rule="nonzero" stroke="none" stroke-width="1" stroke-linecap="butt" stroke-linejoin="miter" stroke-miterlimit="10" stroke-dasharray="" stroke-dashoffset="0" font-family="none" font-weight="none" font-size="none" text-anchor="none" style="mix-blend-mode: normal"><path d="M0,172v-172h172v172z" fill="none"></path><g fill="#ffda1c"><path d="M86,12.76563l-4.87109,10.91797l-17.46875,39.30469l-42.66406,4.36719l-12.09375,1.34375l9.07031,8.0625l31.74609,28.72266l-8.90234,41.99219l-2.51953,11.75781h0.16797l10.41406,-6.04687l37.12109,-21.33203l37.12109,21.33203l10.58203,6.04688l-2.51953,-11.75781l-8.90234,-41.99219l31.74609,-28.72266l9.07031,-8.0625l-12.09375,-1.34375l-42.66406,-4.36719l-17.46875,-39.30469zM86,39.13672l13.77344,31.07422l1.34375,2.6875l3.02344,0.33594l33.92969,3.52734l-25.36328,22.84375l-2.35156,2.01563l0.67188,3.02344l7.05469,33.25781l-29.39453,-16.96484l-2.6875,-1.51172z"></path></g></g></svg>