<svg version="1.1" xmlns="http://www.w3.org/2000/svg" xmlns:xlink="http://www.w3.org/1999/xlink" viewBox="0 0 172 172"><g fill="none" fill-rule="nonzero" stroke="none" stroke-width="1" stroke-linecap="butt" stroke-linejoin="miter" stroke-miterlimit="10" stroke-dasharray="" stroke-dashoffset="0" font-family="none" font-weight="none" font-size="none" text-anchor="none" style="mix-blend-mode: normal"><path d="M0,172v-172h172v172z" fill="none"></path><g><path d="M157.66667,86c0,-8.84008 -1.677,-17.2645 -4.601,-25.08333h-134.13133c-2.924,7.81883 -4.601,16.24325 -4.601,25.08333c0,8.84008 1.677,17.2645 4.601,25.08333h134.12775c2.92758,-7.81883 4.60458,-16.24325 4.60458,-25.08333z" fill="#f5f5f5"></path><path d="M86,68.08333c-9.89717,0 -17.91667,8.0195 -17.91667,17.91667c0,9.89717 8.0195,17.91667 17.91667,17.91667c9.89717,0 17.91667,-8.0195 17.91667,-17.91667c0,-9.89717 -8.0195,-17.91667 -17.91667,-17.91667zM86,101.68067c-8.6645,0 -15.68067,-7.01617 -15.68067,-15.68067c0,-8.6645 7.01617,-15.68067 15.68067,-15.68067c8.6645,0 15.68067,7.01617 15.68067,15.68067c0,8.6645 -7.01617,15.68067 -15.68067,15.68067z" fill="#000088"></path><path d="M89.13183,86c0,1.73792 -1.3975,3.13183 -3.13183,3.13183c-1.73433,0 -3.13183,-1.3975 -3.13183,-3.13183c0,-1.73433 1.3975,-3.13183 3.13183,-3.13183c1.73433,0 3.13183,1.39392 3.13183,3.13183z" fill="#000088"></path><path d="M101.66275,87.27208c-0.43,-0.05375 -0.82417,0.23292 -0.87792,0.66292c-0.05375,0.43 0.23292,0.82417 0.66292,0.87792c0.43,0.07167 0.82417,-0.23292 0.87792,-0.66292c0.06808,-0.43 -0.23292,-0.82417 -0.66292,-0.87792z" fill="#000088"></path><path d="M86,101.68067l0.5375,-9.41342l-0.5375,-4.47558l-0.5375,4.47558z" fill="#000088"></path><path d="M100.80275,91.28183c-0.41208,-0.16125 -0.86,0.01792 -1.03917,0.43c-0.16125,0.39417 0.03583,0.86 0.43,1.02125c0.39417,0.16125 0.86,-0.01792 1.02125,-0.43c0.17917,-0.39775 -0.01792,-0.86358 -0.41208,-1.02125z" fill="#000088"></path><path d="M81.9365,101.14317l2.95267,-8.95117l0.645,-4.45767l-1.68417,4.18892z" fill="#000088"></path><path d="M98.9215,94.93325c-0.34042,-0.26875 -0.82417,-0.215 -1.09292,0.14333c-0.26875,0.34042 -0.19708,0.82417 0.14333,1.09292c0.34042,0.26875 0.84208,0.19708 1.09292,-0.14333c0.26875,-0.344 0.19708,-0.84567 -0.14333,-1.09292z" fill="#000088"></path><path d="M78.15967,99.58442l5.17433,-7.89408l1.77375,-4.13517l-2.70183,3.61558z" fill="#000088"></path><path d="M96.18383,97.95758c-0.26875,-0.34042 -0.77042,-0.39417 -1.11083,-0.14333c-0.34042,0.26875 -0.41208,0.77042 -0.14333,1.11083c0.26875,0.34042 0.7525,0.41208 1.09292,0.14333c0.35833,-0.27233 0.41208,-0.7525 0.16125,-1.11083z" fill="#000088"></path><path d="M74.90242,97.09758l7.03408,-6.28158l2.79142,-3.54392l-3.54392,2.79142z" fill="#000088"></path><path d="M92.7295,100.17567c-0.16125,-0.39417 -0.62708,-0.57333 -1.02125,-0.41208c-0.39417,0.16125 -0.59125,0.62708 -0.43,1.02125c0.17917,0.39417 0.62708,0.59125 1.02125,0.43c0.41208,-0.17917 0.59125,-0.62708 0.43,-1.03917z" fill="#000088"></path><path d="M72.41558,93.84033l8.41367,-4.24267l3.61558,-2.70183l-4.13517,1.77375z" fill="#000088"></path><path d="M88.82725,101.44775c-0.05375,-0.43 -0.44792,-0.73458 -0.87792,-0.68083c-0.43,0.07167 -0.73458,0.46583 -0.68083,0.89583c0.07167,0.43 0.46583,0.71667 0.89583,0.66292c0.43,-0.05733 0.71667,-0.44792 0.66292,-0.87792z" fill="#000088"></path><path d="M70.85683,90.0635l9.21633,-1.9135l4.18892,-1.68417l-4.45767,0.645z" fill="#000088"></path><path d="M84.05067,100.78483c-0.43,-0.07167 -0.82417,0.23292 -0.87792,0.66292c-0.05375,0.43 0.25083,0.82417 0.68083,0.87792c0.43,0.07167 0.82417,-0.23292 0.87792,-0.66292c0.05017,-0.43 -0.25442,-0.82417 -0.68083,-0.87792z" fill="#000088"></path><path d="M70.31933,86l9.41342,0.5375l4.47558,-0.5375l-4.47558,-0.5375z" fill="#000088"></path><path d="M80.30967,99.76358c-0.39417,-0.16125 -0.86,0.03583 -1.02125,0.43c-0.17917,0.39417 0.01792,0.86 0.41208,1.02125c0.41208,0.16125 0.86,-0.01792 1.03917,-0.41208c0.15767,-0.41208 -0.03942,-0.86 -0.43,-1.03917z" fill="#000088"></path><path d="M70.85683,81.9365l8.95117,2.95267l4.45767,0.645l-4.18892,-1.68417z" fill="#000088"></path><path d="M76.94492,97.81425c-0.34042,-0.25083 -0.84208,-0.19708 -1.09292,0.14333c-0.26875,0.35833 -0.215,0.84208 0.14333,1.11083c0.34042,0.25083 0.82417,0.19708 1.09292,-0.14333c0.26517,-0.36192 0.1935,-0.84208 -0.14333,-1.11083z" fill="#000088"></path><path d="M72.41558,78.15967l7.89408,5.17433l4.13517,1.77375l-3.61558,-2.70183z" fill="#000088"></path><path d="M74.18575,95.073c-0.26875,-0.34042 -0.7525,-0.41208 -1.09292,-0.14333c-0.34042,0.25083 -0.41208,0.7525 -0.14333,1.09292c0.25083,0.34042 0.7525,0.41208 1.09292,0.14333c0.34042,-0.26875 0.41208,-0.7525 0.14333,-1.09292z" fill="#000088"></path><path d="M74.90242,74.90242l6.28158,7.03408l3.54392,2.79142l-2.79142,-3.54392z" fill="#000088"></path><path d="M72.23642,91.69033c-0.16125,-0.39417 -0.62708,-0.59125 -1.02125,-0.41208c-0.39417,0.16125 -0.59125,0.62708 -0.43,1.02125c0.17917,0.39417 0.62708,0.59125 1.03917,0.43c0.39417,-0.17917 0.59125,-0.62708 0.41208,-1.03917z" fill="#000088"></path><path d="M78.15967,72.41558l4.24267,8.41367l2.70183,3.61558l-1.77375,-4.13517z" fill="#000088"></path><path d="M71.23308,87.93142c-0.07167,-0.43 -0.46583,-0.71667 -0.87792,-0.66292c-0.43,0.05375 -0.73458,0.44792 -0.68083,0.87792c0.05375,0.43 0.44792,0.73458 0.87792,0.66292c0.43,-0.05375 0.73458,-0.44792 0.68083,-0.87792z" fill="#000088"></path><path d="M81.9365,70.85683l1.9135,9.21633l1.68417,4.18892l-0.645,-4.45767z" fill="#000088"></path><path d="M70.55225,83.17275c-0.43,-0.05375 -0.82417,0.25083 -0.87792,0.68083c-0.05375,0.43 0.25083,0.82417 0.68083,0.87792c0.43,0.05375 0.82417,-0.25083 0.87792,-0.68083c0.05375,-0.43 -0.25083,-0.82417 -0.68083,-0.87792z" fill="#000088"></path><path d="M86,70.31933l-0.5375,9.41342l0.5375,4.47558l0.5375,-4.47558z" fill="#000088"></path><path d="M71.80642,79.2705c-0.39417,-0.16125 -0.86,0.03583 -1.02125,0.43c-0.16125,0.39417 0.01792,0.86 0.43,1.02125c0.39417,0.16125 0.86,-0.01792 1.02125,-0.43c0.16125,-0.39417 -0.03583,-0.86 -0.43,-1.02125z" fill="#000088"></path><path d="M90.0635,70.85683l-2.95267,8.95117l-0.645,4.45767l1.68417,-4.18892z" fill="#000088"></path><path d="M74.04242,75.83408c-0.35833,-0.26875 -0.84208,-0.215 -1.11083,0.14333c-0.25083,0.34042 -0.19708,0.82417 0.14333,1.09292c0.35833,0.26875 0.84208,0.19708 1.11083,-0.14333c0.25083,-0.34042 0.19708,-0.84208 -0.14333,-1.09292z" fill="#000088"></path><path d="M93.84033,72.41558l-5.17433,7.89408l-1.77375,4.13517l2.70183,-3.61558z" fill="#000088"></path><path d="M77.08467,73.0785c-0.26875,-0.34042 -0.7525,-0.41208 -1.09292,-0.14333c-0.35833,0.26875 -0.41208,0.7525 -0.16125,1.11083c0.26875,0.34042 0.77042,0.39417 1.11083,0.14333c0.34042,-0.27233 0.41208,-0.77042 0.14333,-1.11083z" fill="#000088"></path><path d="M97.09758,74.90242l-7.03408,6.28158l-2.79142,3.54392l3.54392,-2.79142z" fill="#000088"></path><path d="M80.71817,71.21517c-0.16125,-0.39417 -0.62708,-0.59125 -1.02125,-0.41208c-0.39417,0.16125 -0.59125,0.60917 -0.43,1.02125c0.16125,0.39417 0.62708,0.59125 1.02125,0.41208c0.41208,-0.16125 0.59125,-0.60917 0.43,-1.02125z" fill="#000088"></path><path d="M99.58442,78.15967l-8.41367,4.24267l-3.61558,2.70183l4.13517,-1.77375z" fill="#000088"></path><path d="M84.72792,70.33725c-0.05375,-0.43 -0.44792,-0.71667 -0.87792,-0.66292c-0.43,0.05375 -0.73458,0.44792 -0.68083,0.87792c0.05375,0.43 0.44792,0.73458 0.87792,0.66292c0.43,-0.05375 0.73458,-0.44792 0.68083,-0.87792z" fill="#000088"></path><path d="M101.14317,81.9365l-9.21633,1.9135l-4.18892,1.68417l4.45767,-0.645z" fill="#000088"></path><path d="M88.14642,69.67792c-0.43,-0.05375 -0.82417,0.25083 -0.87792,0.68083c-0.05375,0.43 0.25083,0.82417 0.68083,0.87792c0.43,0.05375 0.82417,-0.25083 0.87792,-0.68083c0.05375,-0.43358 -0.25083,-0.82417 -0.68083,-0.87792z" fill="#000088"></path><path d="M101.68067,86l-9.41342,-0.5375l-4.47558,0.5375l4.47558,0.5375z" fill="#000088"></path><path d="M92.2995,70.78517c-0.39417,-0.17917 -0.86,0.01792 -1.02125,0.41208c-0.16125,0.41208 0.01792,0.86 0.41208,1.02125c0.41208,0.17917 0.86,-0.01792 1.03917,-0.41208c0.16125,-0.41208 -0.03583,-0.86 -0.43,-1.02125z" fill="#000088"></path><path d="M101.14317,90.0635l-8.95117,-2.95267l-4.45767,-0.645l4.18892,1.68417z" fill="#000088"></path><path d="M96.02258,72.93517c-0.34042,-0.25083 -0.82417,-0.19708 -1.09292,0.14333c-0.26875,0.35833 -0.19708,0.84208 0.14333,1.11083c0.34042,0.25083 0.84208,0.19708 1.11083,-0.14333c0.25083,-0.36192 0.19708,-0.84208 -0.16125,-1.11083z" fill="#000088"></path><path d="M99.58442,93.84033l-7.89408,-5.17433l-4.13517,-1.77375l3.61558,2.70183z" fill="#000088"></path><path d="M99.06483,75.97742c-0.26875,-0.34042 -0.77042,-0.41208 -1.11083,-0.14333c-0.34042,0.26875 -0.41208,0.7525 -0.14333,1.09292c0.26875,0.34042 0.7525,0.41208 1.11083,0.14333c0.34042,-0.25083 0.39417,-0.7525 0.14333,-1.09292z" fill="#000088"></path><path d="M97.09758,97.09758l-6.28158,-7.03408l-3.54392,-2.79142l2.79142,3.54392z" fill="#000088"></path><path d="M101.21483,79.7005c-0.17917,-0.39417 -0.62708,-0.59125 -1.02125,-0.43c-0.41208,0.17917 -0.59125,0.62708 -0.43,1.02125c0.16125,0.41208 0.62708,0.59125 1.02125,0.43c0.39417,-0.16125 0.59125,-0.62708 0.43,-1.02125z" fill="#000088"></path><path d="M93.84033,99.58442l-4.24267,-8.41367l-2.70183,-3.61558l1.77375,4.13517z" fill="#000088"></path><path d="M102.32208,83.85358c-0.05375,-0.43 -0.44792,-0.73458 -0.87792,-0.68083c-0.43,0.07167 -0.73458,0.44792 -0.66292,0.87792c0.05375,0.43 0.44792,0.73458 0.87792,0.68083c0.43358,-0.05733 0.73458,-0.4515 0.66292,-0.87792z" fill="#000088"></path><path d="M90.0635,101.14317l-1.9135,-9.21633l-1.68417,-4.18892l0.645,4.45767z" fill="#000088"></path><path d="M153.06567,111.08333h-134.13133c10.18025,27.19033 36.32425,46.58333 67.06567,46.58333c30.74142,0 56.88542,-19.393 67.06567,-46.58333z" fill="#388e3c"></path><path d="M86,14.33333c-30.74142,0 -56.88542,19.393 -67.06567,46.58333h134.12775c-10.17667,-27.19033 -36.32067,-46.58333 -67.06208,-46.58333z" fill="#ff9800"></path></g></g></svg>